nohup: ignoring input
[30/Mar/2026 23:28:47] "GET / HTTP/1.1" 200 -
[30/Mar/2026 23:29:00] "GET / HTTP/1.1" 200 -
[30/Mar/2026 23:29:00] "GET /styles.css HTTP/1.1" 200 -
[30/Mar/2026 23:29:00] "GET /app.js HTTP/1.1" 200 -
[30/Mar/2026 23:29:00] "GET /api/config HTTP/1.1" 200 -
[30/Mar/2026 23:29:00] code 404, message Static file not found.
[30/Mar/2026 23:29:00] "GET /favicon.ico HTTP/1.1" 404 -
Traceback (most recent call last):
  File "/home/ubuntu/UMR_DATA/server.py", line 1199, in do_GET
    videos = list_videos(root)
             ^^^^^^^^^^^^^^^^^
  File "/home/ubuntu/UMR_DATA/annotator_gateway.py", line 34, in list_videos_with_id
    raise FileNotFoundError(f"Video root does not exist: {root}")
FileNotFoundError: Video root does not exist: /data/cws/Project/UMRM/data/UMRM/videos
[30/Mar/2026 23:29:00] "GET /api/videos?root=%2Fdata%2Fcws%2FProject%2FUMRM%2Fdata%2FUMRM%2Fvideos HTTP/1.1" 404 -
[30/Mar/2026 23:29:00] "GET /api/annotations HTTP/1.1" 200 -
Traceback (most recent call last):
  File "/home/ubuntu/UMR_DATA/server.py", line 1199, in do_GET
    videos = list_videos(root)
             ^^^^^^^^^^^^^^^^^
  File "/home/ubuntu/UMR_DATA/annotator_gateway.py", line 34, in list_videos_with_id
    raise FileNotFoundError(f"Video root does not exist: {root}")
FileNotFoundError: Video root does not exist: /UMRM/data/videos
[30/Mar/2026 23:29:33] "GET /api/videos?root=%2FUMRM%2Fdata%2Fvideos HTTP/1.1" 404 -
[30/Mar/2026 23:29:37] "GET /api/videos?root=~%2FUMRM%2Fdata%2Fvideos HTTP/1.1" 200 -
Traceback (most recent call last):
  File "/home/ubuntu/UMR_DATA/server.py", line 1237, in do_GET
    preview_path = ensure_preview_available(source_path)
                   ^^^^^^^^^^^^^^^^^^^^^^^^^^^^^^^^^^^^^
  File "/home/ubuntu/UMR_DATA/server.py", line 258, in ensure_preview_available
    raise RuntimeError(f"Preview generation failed:\
RuntimeError: Preview generation failed:ffmpeg version 6.1.1-3ubuntu5 Copyright (c) 2000-2023 the FFmpeg developers
  built with gcc 13 (Ubuntu 13.2.0-23ubuntu3)
  configuration: --prefix=/usr --extra-version=3ubuntu5 --toolchain=hardened --libdir=/usr/lib/x86_64-linux-gnu --incdir=/usr/include/x86_64-linux-gnu --arch=amd64 --enable-gpl --disable-stripping --disable-omx --enable-gnutls --enable-libaom --enable-libass --enable-libbs2b --enable-libcaca --enable-libcdio --enable-libcodec2 --enable-libdav1d --enable-libflite --enable-libfontconfig --enable-libfreetype --enable-libfribidi --enable-libglslang --enable-libgme --enable-libgsm --enable-libharfbuzz --enable-libmp3lame --enable-libmysofa --enable-libopenjpeg --enable-libopenmpt --enable-libopus --enable-librubberband --enable-libshine --enable-libsnappy --enable-libsoxr --enable-libspeex --enable-libtheora --enable-libtwolame --enable-libvidstab --enable-libvorbis --enable-libvpx --enable-libwebp --enable-libx265 --enable-libxml2 --enable-libxvid --enable-libzimg --enable-openal --enable-opencl --enable-opengl --disable-sndio --enable-libvpl --disable-libmfx --enable-libdc1394 --enable-libdrm --enable-libiec61883 --enable-chromaprint --enable-frei0r --enable-ladspa --enable-libbluray --enable-libjack --enable-libpulse --enable-librabbitmq --enable-librist --enable-libsrt --enable-libssh --enable-libsvtav1 --enable-libx264 --enable-libzmq --enable-libzvbi --enable-lv2 --enable-sdl2 --enable-libplacebo --enable-librav1e --enable-pocketsphinx --enable-librsvg --enable-libjxl --enable-shared
  libavutil      58. 29.100 / 58. 29.100
  libavcodec     60. 31.102 / 60. 31.102
  libavformat    60. 16.100 / 60. 16.100
  libavdevice    60.  3.100 / 60.  3.100
  libavfilter     9. 12.100 /  9. 12.100
  libswscale      7.  5.100 /  7.  5.100
  libswresample   4. 12.100 /  4. 12.100
  libpostproc    57.  3.100 / 57.  3.100
Input #0, mov,mp4,m4a,3gp,3g2,mj2, from '/home/ubuntu/UMRM/data/videos/001_f101_mountain_trail.mp4':
  Metadata:
    major_brand     : isom
    minor_version   : 512
    compatible_brands: isomiso2avc1mp41
    encoder         : Lavf60.16.100
  Duration: 00:00:04.10, start: 0.000000, bitrate: 8416 kb/s
  Stream #0:0[0x1](und): Video: h264 (High) (avc1 / 0x31637661), yuv420p(progressive), 720x1280, 8391 kb/s, 30 fps, 30 tbr, 15360 tbn (default)
    Metadata:
      handler_name    : VideoHandler
      vendor_id       : [0][0][0][0]
      encoder         : Lavc60.31.102 libx264
  Stream #0:1[0x2](und): Audio: aac (LC) (mp4a / 0x6134706D), 96000 Hz, stereo, fltp, 189 kb/s (default)
    Metadata:
      handler_name    : SoundHandler
      vendor_id       : [0][0][0][0]
[AVFilterGraph @ 0x5d9585049a40] No option name near 'lanczos'
[AVFilterGraph @ 0x5d9585049a40] Error parsing a filter description around: 
[AVFilterGraph @ 0x5d9585049a40] Error parsing filterchain 'scale=-2:min(540,ih):flags=lanczos' around: 
[vost#0:0/libx264 @ 0x5d9584f91240] Error initializing a simple filtergraph
Error opening output file /home/ubuntu/UMR_DATA/preview_cache/1ac147f44dff4dd0a217f26c0b1b92887319dad3.tmp.mp4.
Error opening output files: Invalid argument

[30/Mar/2026 23:29:49] "GET /preview?path=/home/ubuntu/UMRM/data/videos/001_f101_mountain_trail.mp4 HTTP/1.1" 502 -
